<?xml version="1.0" standalone="no"?>
<!DOCTYPE svg PUBLIC "-//W3C//DTD SVG 20010904//EN"
 "http://www.w3.org/TR/2001/REC-SVG-20010904/DTD/svg10.dtd">
<svg version="1.0" xmlns="http://www.w3.org/2000/svg"
 width="107.000000pt" height="107.000000pt" viewBox="0 0 107.000000 107.000000"
 preserveAspectRatio="xMidYMid meet">
<metadata>
Created by potrace 1.11, written by Peter Selinger 2001-2013
</metadata>
<g transform="translate(0.000000,107.000000) scale(0.100000,-0.100000)"
fill="#000000" stroke="none">
<path d="M50 670 l0 -350 43 0 44 0 0 350 1 350 -44 0 -44 0 0 -350z"/>
<path d="M572 993 c-44 -29 -57 -58 -67 -151 l-7 -63 48 3 49 3 6 50 c13 104
3 98 148 92 143 -6 156 -10 166 -40 20 -64 17 -442 -4 -476 -10 -15 -225 -17
-264 -2 -28 11 -34 24 -43 89 -3 26 -8 50 -10 53 -4 7 -71 2 -85 -7 -13 -8 -3
-105 16 -149 28 -67 78 -80 310 -80 108 0 145 17 172 79 25 61 32 407 9 496
-28 108 -47 117 -278 124 -122 4 -128 4 -166 -21z"/>
<path d="M468 719 c-78 -6 -114 -27 -134 -76 -20 -46 -31 -245 -23 -394 11
-201 41 -229 232 -223 62 2 132 6 156 9 87 9 123 57 125 169 l1 71 -47 3 c-34
2 -48 -1 -49 -10 -7 -93 -18 -135 -37 -143 -16 -8 -50 -10 -172 -15 -90 -3
-88 -4 -96 43 -9 56 -12 316 -3 390 4 33 13 66 21 73 13 13 49 19 186 28 72 5
91 -7 94 -57 1 -18 2 -41 2 -52 2 -22 35 -33 79 -27 29 5 29 5 23 63 -14 153
-64 174 -358 148z"/>
</g>
</svg>
